<svg width="88" height="128" viewBox="0 0 88 128" fill="none" xmlns="http://www.w3.org/2000/svg">
<g clip-path="url(#clip0_1_9)">
<path d="M37.7875 117H36.7875V118H37.7875V117ZM37.7875 38.92H38.7875V37.92H37.7875V38.92ZM13.5955 38.92H12.5955V39.92H13.5955V38.92ZM13.5955 21.64V20.64H12.5955V21.64H13.5955ZM81.4355 21.64H82.4355V20.64H81.4355V21.64ZM81.4355 38.92V39.92H82.4355V38.92H81.4355ZM57.6275 38.92V37.92H56.6275V38.92H57.6275ZM57.6275 117V118H58.6275V117H57.6275ZM38.7875 117V38.92H36.7875V117H38.7875ZM37.7875 37.92H13.5955V39.92H37.7875V37.92ZM14.5955 38.92V21.64H12.5955V38.92H14.5955ZM13.5955 22.64H81.4355V20.64H13.5955V22.64ZM80.4355 21.64V38.92H82.4355V21.64H80.4355ZM81.4355 37.92H57.6275V39.92H81.4355V37.92ZM56.6275 38.92V117H58.6275V38.92H56.6275ZM57.6275 116H37.7875V118H57.6275V116Z" fill="url(#paint0_linear_1_9)"/>
<path d="M31.7875 113V34.92H7.5955V17.64H75.4355V34.92H51.6275V113H31.7875Z" fill="url(#paint1_linear_1_9)"/>
</g>
<defs>
<linearGradient id="paint0_linear_1_9" x1="9.03018" y1="17.4099" x2="82.1247" y2="119.568" gradientUnits="userSpaceOnUse">
<stop stop-color="#FFAA00"/>
<stop offset="1" stop-color="#FF007A"/>
</linearGradient>
<linearGradient id="paint1_linear_1_9" x1="5.0819" y1="18.4721" x2="68.5334" y2="115.423" gradientUnits="userSpaceOnUse">
<stop stop-color="#FFAA00"/>
<stop offset="1" stop-color="#FF007A"/>
</linearGradient>
<clipPath id="clip0_1_9">
<rect width="88" height="128" fill="white"/>
</clipPath>
</defs>
</svg>
