<svg width="194" height="52" viewBox="0 0 194 52" fill="none" xmlns="http://www.w3.org/2000/svg">
    <g clip-path="url(#clip0_1_2)">
        <path d="M8 41V16.6H0.44V11.2H21.64V16.6H14.2V41H8ZM24.2703 41V10.72H30.2703V23.48L29.5503 22.52C30.057 21.2133 30.8703 20.2533 31.9903 19.64C33.137 19 34.4703 18.68 35.9903 18.68C37.6436 18.68 39.0836 19.0267 40.3103 19.72C41.5636 20.4133 42.537 21.3867 43.2303 22.64C43.9236 23.8667 44.2703 25.3067 44.2703 26.96V41H38.2703V28.24C38.2703 27.3867 38.097 26.6533 37.7503 26.04C37.4303 25.4267 36.9636 24.9467 36.3503 24.6C35.7636 24.2533 35.0703 24.08 34.2703 24.08C33.497 24.08 32.8036 24.2533 32.1903 24.6C31.577 24.9467 31.097 25.4267 30.7503 26.04C30.4303 26.6533 30.2703 27.3867 30.2703 28.24V41H24.2703ZM54.9756 41.48C53.4023 41.48 52.0423 41.2267 50.8956 40.72C49.749 40.2133 48.869 39.4933 48.2556 38.56C47.6423 37.6 47.3356 36.4667 47.3356 35.16C47.3356 33.9333 47.6156 32.8533 48.1756 31.92C48.7356 30.96 49.589 30.16 50.7356 29.52C51.909 28.88 53.3623 28.4267 55.0956 28.16L61.7756 27.08V31.48L56.1756 32.48C55.3223 32.64 54.669 32.92 54.2156 33.32C53.7623 33.6933 53.5356 34.24 53.5356 34.96C53.5356 35.6267 53.789 36.1467 54.2956 36.52C54.8023 36.8933 55.429 37.08 56.1756 37.08C57.1623 37.08 58.029 36.8667 58.7756 36.44C59.5223 36.0133 60.0956 35.44 60.4956 34.72C60.9223 33.9733 61.1356 33.16 61.1356 32.28V26.6C61.1356 25.7733 60.8023 25.08 60.1356 24.52C59.4956 23.96 58.6156 23.68 57.4956 23.68C56.429 23.68 55.4823 23.9733 54.6556 24.56C53.8556 25.1467 53.269 25.92 52.8956 26.88L48.0956 24.6C48.5223 23.3733 49.2023 22.32 50.1356 21.44C51.069 20.56 52.189 19.88 53.4956 19.4C54.8023 18.92 56.229 18.68 57.7756 18.68C59.6156 18.68 61.2423 19.0133 62.6556 19.68C64.069 20.3467 65.1623 21.28 65.9356 22.48C66.7356 23.6533 67.1356 25.0267 67.1356 26.6V41H61.5356V37.48L62.8956 37.24C62.2556 38.2 61.549 39 60.7756 39.64C60.0023 40.2533 59.1356 40.7067 58.1756 41C57.2156 41.32 56.149 41.48 54.9756 41.48ZM81.8159 41.48C79.6826 41.48 77.7759 40.9733 76.0959 39.96C74.4159 38.9467 73.0826 37.5733 72.0959 35.84C71.1359 34.1067 70.6559 32.1867 70.6559 30.08C70.6559 27.9467 71.1493 26.0267 72.1359 24.32C73.1226 22.5867 74.4559 21.2133 76.1359 20.2C77.8159 19.1867 79.6959 18.68 81.7759 18.68C83.3759 18.68 84.7893 18.9867 86.0159 19.6C87.2693 20.1867 88.2559 21.0267 88.9759 22.12L88.0559 23.32V10.72H94.0559V41H88.4559V37L89.0159 38.24C88.2693 39.3067 87.2559 40.12 85.9759 40.68C84.6959 41.2133 83.3093 41.48 81.8159 41.48ZM82.5359 36.08C83.6293 36.08 84.5893 35.8267 85.4159 35.32C86.2426 34.8133 86.8826 34.1067 87.3359 33.2C87.8159 32.2933 88.0559 31.2533 88.0559 30.08C88.0559 28.9067 87.8159 27.8667 87.3359 26.96C86.8826 26.0533 86.2426 25.3467 85.4159 24.84C84.5893 24.3333 83.6293 24.08 82.5359 24.08C81.4426 24.08 80.4559 24.3467 79.5759 24.88C78.7226 25.3867 78.0559 26.0933 77.5759 27C77.0959 27.88 76.8559 28.9067 76.8559 30.08C76.8559 31.2533 77.0959 32.2933 77.5759 33.2C78.0559 34.1067 78.7226 34.8133 79.5759 35.32C80.4559 35.8267 81.4426 36.08 82.5359 36.08Z" fill="url(#paint0_linear_1_2)"/>
        <path d="M98.89 41V11.2H108.61C111.837 11.2 114.637 11.84 117.01 13.12C119.383 14.4 121.223 16.16 122.53 18.4C123.837 20.64 124.49 23.2 124.49 26.08C124.49 28.96 123.837 31.5333 122.53 33.8C121.223 36.04 119.383 37.8 117.01 39.08C114.637 40.36 111.837 41 108.61 41H98.89ZM105.09 35.6H108.77C110.717 35.6 112.397 35.2133 113.81 34.44C115.223 33.64 116.317 32.5333 117.09 31.12C117.89 29.68 118.29 28 118.29 26.08C118.29 24.1333 117.89 22.4533 117.09 21.04C116.317 19.6267 115.223 18.5333 113.81 17.76C112.397 16.9867 110.717 16.6 108.77 16.6H105.09V35.6ZM138.54 41.48C136.22 41.48 134.207 40.9733 132.5 39.96C130.794 38.92 129.474 37.5333 128.54 35.8C127.607 34.0667 127.14 32.1467 127.14 30.04C127.14 27.8533 127.62 25.9067 128.58 24.2C129.567 22.4933 130.887 21.1467 132.54 20.16C134.194 19.1733 136.06 18.68 138.14 18.68C139.874 18.68 141.407 18.96 142.74 19.52C144.074 20.0533 145.194 20.8133 146.1 21.8C147.034 22.7867 147.74 23.9333 148.22 25.24C148.7 26.52 148.94 27.92 148.94 29.44C148.94 29.8667 148.914 30.2933 148.86 30.72C148.834 31.12 148.767 31.4667 148.66 31.76H132.3V27.36H145.26L142.42 29.44C142.687 28.2933 142.674 27.28 142.38 26.4C142.087 25.4933 141.567 24.7867 140.82 24.28C140.1 23.7467 139.207 23.48 138.14 23.48C137.1 23.48 136.207 23.7333 135.46 24.24C134.714 24.7467 134.154 25.4933 133.78 26.48C133.407 27.4667 133.26 28.6667 133.34 30.08C133.234 31.3067 133.38 32.3867 133.78 33.32C134.18 34.2533 134.794 34.9867 135.62 35.52C136.447 36.0267 137.447 36.28 138.62 36.28C139.687 36.28 140.594 36.0667 141.34 35.64C142.114 35.2133 142.714 34.6267 143.14 33.88L147.94 36.16C147.514 37.2267 146.834 38.16 145.9 38.96C144.994 39.76 143.914 40.3867 142.66 40.84C141.407 41.2667 140.034 41.48 138.54 41.48ZM158.923 41L150.323 19.16H156.803L162.763 35.68H160.283L166.243 19.16H172.723L164.123 41H158.923Z" fill="white"/>
        <circle cx="178" cy="36" r="5" fill="url(#paint1_linear_1_2)"/>
    </g>
    <defs>
        <linearGradient id="paint0_linear_1_2" x1="0" y1="0" x2="97" y2="52" gradientUnits="userSpaceOnUse">
            <stop stop-color="#5A83FF"/>
            <stop offset="1" stop-color="#FE2BF4"/>
        </linearGradient>
        <linearGradient id="paint1_linear_1_2" x1="173" y1="31" x2="183" y2="41" gradientUnits="userSpaceOnUse">
            <stop stop-color="#5A83FF"/>
            <stop offset="1" stop-color="#FE2BF4"/>
        </linearGradient>
        <clipPath id="clip0_1_2">
            <rect width="194" height="52" fill="white"/>
        </clipPath>
    </defs>
</svg>